<svg xmlns="http://www.w3.org/2000/svg" xmlns:xlink="http://www.w3.org/1999/xlink" viewBox="0 0 1598 432"><defs><style>.cls-1{fill:none;}.cls-2{fill:url(#Dégradé_sans_nom_3);}.cls-3{fill:#01c7fe;stroke:#01c7fe;stroke-miterlimit:10;}.cls-4{clip-path:url(#clip-path);}.cls-5{fill:#03e9ff;}.cls-6{fill:#fff;}</style><linearGradient id="Dégradé_sans_nom_3" y1="216" x2="432" y2="216" gradientUnits="userSpaceOnUse"><stop offset="0" stop-color="#019aff"/><stop offset="1" stop-color="#0466fb"/></linearGradient><clipPath id="clip-path" transform="translate(-18 -27)"><circle class="cls-1" cx="234" cy="243" r="216"/></clipPath></defs><g id="Calque_1" data-name="Calque 1"><circle class="cls-2" cx="216" cy="216" r="216"/><circle class="cls-3" cx="379" cy="216" r="143"/><g class="cls-4"><circle class="cls-5" cx="379" cy="216" r="143"/></g></g><g id="Calque_4" data-name="Calque 4"><path class="cls-6" d="M753.52,263.24c0,60.38-36.86,93.11-80.4,93.11-14,0-30.51-3.18-39.09-8.27L622.91,330V351.9h-57.2V134.51l57.2-16.18V207l12.71-18.75c9.54-7,26.06-10.48,43.22-10.48C724.92,177.76,753.52,213,753.52,263.24Zm-58.47,2.86c0-31.78-15.89-49.58-35.91-49.58-21,0-36.23,12.72-36.23,48.31v7.31c0,34,17.48,45.44,34.64,45.44C679.79,317.58,695.05,300.74,695.05,266.1Z" transform="translate(-18 -27)"/><path class="cls-6" d="M834,290.88c0,7.95,0,11.45.63,15.58,1,6.67,3.81,8.89,18.75,8.26v38.77c-10.49.95-20.66,1.59-33.37,1.59-26.37,0-41.31-10.49-42.58-33.05-.63-8.9-.63-17.48-.63-30.19V133.35l57.2-15Z" transform="translate(-18 -27)"/><rect class="cls-6" x="858.96" y="155.21" width="57.2" height="169.69"/><path class="cls-6" d="M1082,351.9h-61.65l-67-169.69h63.56l28.71,82.45-1.16,42.75,7.4-24.07,34.64-101.13h62.6Z" transform="translate(-18 -27)"/><rect class="cls-6" x="1153.51" y="155.21" width="57.2" height="169.69"/><path class="cls-6" d="M1434.11,351.9h-57.2V323.3l-15.25,23.2c-10.49,6.35-22.56,9.85-38.14,9.85-35,0-56.24-19.7-60.06-42.9-1.27-8.58-1.58-18.43-1.58-32.1V182.21h57.2v86.43a227,227,0,0,0,1.27,23.2c1.9,16.2,9.53,25.74,27.64,25.74s28.92-16.84,28.92-39.41v-96h57.2Z" transform="translate(-18 -27)"/><path class="cls-6" d="M1611.55,231.78h-56.24c-2.55-11.76-8.27-18.43-18.44-18.43-7.94,0-13.66,5.08-13.66,12.39,0,9.53,7.63,15.89,40,23.83,30.82,7.63,52.75,21,52.75,53.71,0,36.22-34,53.07-75,53.07-46.07,0-77.53-19.07-82-57.2h56.24c3.18,13,13.35,21.61,25.43,21.61,10.17,0,18.11-4.14,18.11-13,0-10.81-10.8-16.85-41-23.84-32.42-7.62-51.8-22.56-51.8-51.48,0-33.68,29.23-54.65,74.36-54.65C1582.63,177.76,1607.1,201,1611.55,231.78Z" transform="translate(-18 -27)"/><circle class="cls-6" cx="887.79" cy="115.16" r="28.89"/><circle class="cls-6" cx="1182.46" cy="115.16" r="28.89"/></g></svg>