<?xml version="1.0" encoding="utf-8"?>
<!-- Generator: Adobe Illustrator 25.4.1, SVG Export Plug-In . SVG Version: 6.00 Build 0)  -->
<svg version="1.1" id="Calque_1" xmlns="http://www.w3.org/2000/svg" xmlns:xlink="http://www.w3.org/1999/xlink" x="0px" y="0px"
	 viewBox="0 0 1402 1028.2" style="enable-background:new 0 0 1402 1028.2;" xml:space="preserve">
<style type="text/css">
	.st0{display:none;}
	.st1{display:inline;fill-rule:evenodd;clip-rule:evenodd;fill:#01C7FE;stroke:#01C7FE;stroke-miterlimit:10;}
	.st2{display:inline;fill-rule:evenodd;clip-rule:evenodd;fill:#252D81;}
	.st3{display:inline;fill-rule:evenodd;clip-rule:evenodd;fill:#0196FF;}
	.st4{display:inline;fill-rule:evenodd;clip-rule:evenodd;fill:#FFFFFF;}
	.st5{display:inline;fill-rule:evenodd;clip-rule:evenodd;fill:#EBBB5B;}
	.st6{display:inline;fill-rule:evenodd;clip-rule:evenodd;fill:#15285A;}
	.st7{display:inline;fill-rule:evenodd;clip-rule:evenodd;fill:#03E9FF;}
	.st8{display:inline;fill:none;stroke:#EBBB5B;stroke-width:11;stroke-miterlimit:10;}
	.st9{display:inline;fill-rule:evenodd;clip-rule:evenodd;fill:#1E3568;}
	.st10{display:inline;fill:#01C7FE;stroke:#01C7FE;stroke-miterlimit:10;}
	.st11{display:inline;}
	.st12{fill:#FFFFFF;}
	.st13{display:inline;fill:#EBBB5B;}
	.st14{display:inline;fill:#15285A;}
	.st15{display:inline;fill:#0196FF;}
	.st16{display:inline;fill:none;stroke:#EBBB5B;stroke-width:15;stroke-miterlimit:10;}
	.st17{display:inline;fill:#FFFFFF;}
	.st18{display:inline;fill:#03E9FF;}
	.st19{display:inline;opacity:0.16;fill-rule:evenodd;clip-rule:evenodd;fill:#FFFFFF;enable-background:new    ;}
	.st20{display:inline;fill:none;stroke:#01C7FE;stroke-width:15;stroke-miterlimit:10;}
	.st21{fill:#EAF1F9;}
	.st22{fill:none;stroke:#000000;stroke-width:3;stroke-linecap:round;stroke-linejoin:round;stroke-miterlimit:10;}
	.st23{fill:#FDD251;}
	.st24{fill:#15285A;}
	.st25{fill:#01C7FE;stroke:#01C7FE;stroke-miterlimit:10;}
	.st26{fill:#8CADE4;}
	.st27{fill:#20093F;}
	.st28{fill:#03E9FF;}
	.st29{fill:#03C8DD;}
	.st30{fill:#DAE7ED;}
	.st31{fill:#E6EFF4;}
	.st32{fill:#1C9CBA;}
	.st33{fill:#F4C245;}
	.st34{fill:#BFD0EE;}
	.st35{fill:#76A2E2;}
	.st36{fill:none;stroke:#365B91;stroke-width:1.1809;stroke-linecap:round;stroke-miterlimit:10;}
	.st37{fill:#FC7B24;}
	.st38{fill:#055FA3;}
	.st39{fill:#0087E1;}
	.st40{fill:#99B4D6;}
	.st41{fill:none;stroke:#FFFFFF;stroke-width:3;stroke-linecap:round;stroke-linejoin:round;stroke-miterlimit:10;}
	.st42{fill:none;stroke:#000000;stroke-width:9;stroke-linecap:round;stroke-linejoin:round;stroke-miterlimit:10;}
	.st43{fill:#008AD1;}
	.st44{fill:none;stroke:#FDD251;stroke-width:10;stroke-linecap:round;stroke-linejoin:round;stroke-miterlimit:10;}
	.st45{fill:none;stroke:#0D2160;stroke-width:4;stroke-linecap:round;stroke-linejoin:round;stroke-miterlimit:10;}
	.st46{fill:none;stroke:#000000;stroke-width:2;stroke-linecap:round;stroke-linejoin:round;stroke-miterlimit:10;}
</style>
<g id="Calque_1_00000005237538471286864420000016290943057897207213_" class="st0">
	
		<image style="display:inline;overflow:visible;enable-background:new    ;" width="562" height="316" xlink:href="68BB032D59C3F68D.jpeg"  transform="matrix(1.8585 0 0 1.8585 -1405.4501 -441)">
	</image>
	
		<image style="display:inline;overflow:visible;enable-background:new    ;" width="400" height="300" xlink:href="68BB032D59C3F68F.jpeg"  transform="matrix(1.8133 0 0 1.8133 -1017.45 1228)">
	</image>
	
		<image style="display:inline;overflow:visible;enable-background:new    ;" width="564" height="423" xlink:href="68BB032D59C3F68D.jpeg"  transform="matrix(3.3014 0 0 3.3014 1222.5499 1439)">
	</image>
	
		<image style="display:inline;overflow:visible;enable-background:new    ;" width="563" height="321" xlink:href="68BB032D59C3F68B.jpeg"  transform="matrix(2.9455 0 0 2.9455 -733.45 1691)">
	</image>
	<path class="st1" d="M2040.2,261.7H2154c0,62.9-50.9,113.8-113.8,113.8V261.7z"/>
	<path class="st2" d="M2040.2,261.7h43.2c0,23.8-19.3,43.2-43.2,43.2V261.7z"/>
	<rect x="2168.7" y="261.7" class="st3" width="128.5" height="128.5"/>
	<rect x="2425.8" y="261.7" class="st3" width="128.5" height="128.5"/>
	<path class="st1" d="M2554.3,261.7h-113.8c0,62.9,50.9,113.8,113.8,113.8V261.7z"/>
	<path class="st3" d="M2618.6,261.7L2618.6,261.7c35.4,0,64.3,28.9,64.3,64.3l0,0c0,35.4-28.9,64.3-64.3,64.3l0,0
		c-35.3,0-64.3-28.9-64.3-64.3l0,0C2554.3,290.6,2583.2,261.7,2618.6,261.7z"/>
	<path class="st4" d="M2618.6,292.4L2618.6,292.4c18.5,0,33.6,15.1,33.6,33.6l0,0c0,18.5-15.1,33.6-33.6,33.6l0,0
		c-18.5,0-33.6-15.1-33.6-33.6l0,0C2585,307.5,2600.1,292.4,2618.6,292.4z"/>
	<rect x="2297.2" y="261.7" class="st4" width="128.5" height="128.5"/>
	<rect x="2682.8" y="261.7" class="st4" width="128.5" height="128.5"/>
	<rect x="2297.2" y="133.2" class="st1" width="128.5" height="128.5"/>
	<rect x="2168.7" y="133.2" class="st4" width="128.5" height="128.5"/>
	<path class="st5" d="M2233,261.7L2233,261.7c35.4,0,64.3-28.9,64.3-64.3l0,0c0-35.4-28.9-64.3-64.3-64.3l0,0
		c-35.3,0-64.3,28.9-64.3,64.3l0,0C2168.7,232.8,2197.6,261.7,2233,261.7z"/>
	<path class="st4" d="M2233,231L2233,231c18.5,0,33.6-15.1,33.6-33.6l0,0c0-18.5-15.1-33.6-33.6-33.6l0,0
		c-18.5,0-33.6,15.1-33.6,33.6l0,0C2199.4,215.9,2214.5,231,2233,231z"/>
	<rect x="2040.2" y="133.2" class="st6" width="128.5" height="128.5"/>
	<path class="st3" d="M2040.2,261.7H2154c0-62.9-50.9-113.8-113.8-113.8V261.7z"/>
	<path class="st7" d="M2040.2,261.7h43.2c0-23.8-19.3-43.2-43.2-43.2V261.7z"/>
	<rect x="2425.8" y="133.2" class="st4" width="128.5" height="128.5"/>
	<path class="st8" d="M2520.7,217.1c-4.1-4.1-10.6-4.1-14.7,0s-4.1,10.6,0,14.7s10.6,4.1,14.7,0
		C2524.7,227.7,2524.7,221.2,2520.7,217.1z"/>
	<path class="st8" d="M2493.7,190.1c-4.1-4.1-10.6-4.1-14.7,0s-4.1,10.6,0,14.7s10.6,4.1,14.7,0
		C2497.7,200.7,2497.7,194.2,2493.7,190.1z"/>
	<path class="st8" d="M2466.7,163.1c-4.1-4.1-10.6-4.1-14.7,0s-4.1,10.6,0,14.7s10.6,4.1,14.7,0
		C2470.7,173.7,2470.7,167.2,2466.7,163.1z"/>
	<rect x="2040.2" y="4.7" class="st9" width="128.5" height="128.5"/>
	<path class="st4" d="M2040.2,4.7h128.5c0,71-57.5,128.5-128.5,128.5V4.7z"/>
	<rect x="2297.2" y="4.7" class="st6" width="128.5" height="128.5"/>
	<rect x="2425.8" y="4.7" class="st4" width="128.5" height="128.5"/>
	<path class="st3" d="M2490,133.2L2490,133.2c35.4,0,64.3-28.9,64.3-64.3l0,0c0-35.3-28.9-64.3-64.3-64.3l0,0
		c-35.3,0-64.3,28.9-64.3,64.3l0,0C2425.8,104.3,2454.7,133.2,2490,133.2z"/>
	<rect x="2168.7" y="4.7" class="st4" width="128.5" height="128.5"/>
	<path class="st3" d="M2297.2,4.7h-113.8c0,62.9,50.9,113.8,113.8,113.8V4.7z"/>
	<path class="st4" d="M2297.2,4.7h-43.2c0,23.8,19.3,43.2,43.2,43.2V4.7z"/>
	<rect x="2297.2" y="-123.9" class="st9" width="128.5" height="128.5"/>
	<path class="st5" d="M2297.2,4.7H2411c0-62.9-50.9-113.8-113.8-113.8V4.7z"/>
	<path class="st9" d="M2297.2,4.7h43.2c0-23.8-19.3-43.2-43.2-43.2V4.7z"/>
	<rect x="2168.7" y="-123.9" class="st7" width="128.5" height="128.5"/>
	<path class="st1" d="M2297.2,4.7h-113.8c0-62.9,50.9-113.8,113.8-113.8V4.7z"/>
	<path class="st4" d="M2297.2,4.7h-43.2c0-23.8,19.3-43.2,43.2-43.2V4.7z"/>
	<rect x="2554.3" y="-123.9" class="st4" width="128.5" height="128.5"/>
	<rect x="2040.2" y="-123.9" class="st4" width="128.5" height="128.5"/>
	<path class="st10" d="M2618.5-59.6c0-35.7,28.9-64.6,64.6-64.6V5C2647.5,5,2618.5-23.9,2618.5-59.6z"/>
	<g class="st11">
		<path class="st12" d="M2490.5-78.2c10.4,0,18.8,8.4,18.8,18.8l0,0c0,10.4-8.4,18.8-18.8,18.8c-10.4,0-18.8-8.4-18.8-18.8l0,0
			C2471.7-69.8,2480.1-78.2,2490.5-78.2 M2490.5-102.2c-23.6,0-42.8,19.2-42.8,42.8c0,23.6,19.2,42.8,42.8,42.8
			c23.6,0,42.8-19.2,42.8-42.8S2514.1-102.2,2490.5-102.2L2490.5-102.2z"/>
	</g>
	<path class="st13" d="M2773.2,390.1h-37.9c0-41.9,34-75.9,75.9-75.9v37.9C2790.2,352.2,2773.2,369.2,2773.2,390.1z"/>
	<path class="st14" d="M2297.2,325.7v63.6c70.2,0,127.1-56.9,127.1-127.1h-63.6C2360.7,297.2,2332.2,325.7,2297.2,325.7z"/>
	<path class="st15" d="M2619-59.6c0-35.7-28.9-64.6-64.6-64.6V5C2590.1,5,2619-23.9,2619-59.6z"/>
	<path class="st16" d="M2088.1-100.7c-6.9-6.9-18-6.9-24.9,0c-6.9,6.9-6.9,18,0,24.9c6.9,6.9,18,6.9,24.9,0
		C2095-82.7,2095-93.8,2088.1-100.7z"/>
	<path class="st17" d="M2297.4,306.1c-24.1,0-43.7-19.6-43.7-43.7h5.9c0,20.9,17,37.8,37.8,37.8"/>
	<path class="st17" d="M2297.4,347.1c-46.7,0-84.7-38-84.7-84.7h5.9c0,43.5,35.4,78.8,78.8,78.8"/>
	<path class="st17" d="M2297.4,388.1c-69.3,0-125.7-56.4-125.7-125.7h5.9c0,66.1,53.8,119.9,119.9,119.9"/>
	<path class="st18" d="M2362.8,197.4c0-35.7-28.9-64.6-64.6-64.6V262C2333.8,262,2362.8,233.1,2362.8,197.4z"/>
	<path class="st19" d="M2361.4,242.2L2361.4,242.2c24,0,43.7-19.7,43.7-43.7l0,0c0-24-19.7-43.7-43.7-43.7l0,0
		c-24,0-43.7,19.7-43.7,43.7l0,0C2317.8,222.5,2337.4,242.2,2361.4,242.2z"/>
	<path class="st1" d="M2618.4,233.2L2618.4,233.2c24,0,43.7-19.7,43.7-43.7l0,0c0-24-19.7-43.7-43.7-43.7l0,0
		c-24,0-43.7,19.7-43.7,43.7l0,0C2574.8,213.5,2594.4,233.2,2618.4,233.2z"/>
	<path class="st20" d="M2401.1,28.4c-6.9-6.9-18-6.9-24.9,0c-6.9,6.9-6.9,18,0,24.9s18,6.9,24.9,0C2408,46.3,2408,35.2,2401.1,28.4z
		"/>
</g>
<g id="Calque_6">
</g>
<g id="Calque_2_00000145777624141172617080000018278199005666481576_">
	<rect x="265.5" y="183" class="st21" width="582" height="376"/>
	<polygon class="st12" points="526.1,317.3 526.1,399.9 593.1,358.6 	"/>
	<polygon class="st22" points="520.1,325.3 520.1,407.9 587.1,366.6 	"/>
	<path class="st23" d="M863,129H544c-3.6,0-6.5-2.9-6.5-6.5l0,0c0-3.6,2.9-6.5,6.5-6.5h319c3.6,0,6.5,2.9,6.5,6.5l0,0
		C869.5,126.1,866.6,129,863,129z"/>
	<line class="st22" x1="553.6" y1="122.5" x2="851.4" y2="122.5"/>
	<circle class="st24" cx="606.5" cy="122" r="20"/>
	<path class="st25" d="M453.5,325h-239c-6.6,0-12-5.4-12-12l0,0c0-6.6,5.4-12,12-12h239c6.6,0,12,5.4,12,12l0,0
		C465.5,319.6,460.1,325,453.5,325z"/>
	<line class="st22" x1="215.4" y1="313.5" x2="444.2" y2="313.5"/>
	<path class="st26" d="M723.5,951h-161c-3.8,0-7-3.2-7-7l0,0c0-3.8,3.2-7,7-7h161c3.8,0,7,3.2,7,7l0,0
		C730.5,947.8,727.4,951,723.5,951z"/>
</g>
<g id="Calque_10">
	<path class="st27" d="M818.4,572.4l-116.2-8c0,0-4.2-13.1,8.1-35.6c0,0-16.6,15-15.8,32.8c0,0-33.9-10.5-7.3-59.9
		c0,0,11.7-17.8,18.2-24.8c0,0,17.5-22,15.8-40.4c0,0,3.2-71.9,44.8-91l96.9,30.2L818.4,572.4z"/>
</g>
<g id="Calque_3">
	<g>
		<path class="st28" d="M1119.7,890.5c23.1-58.5-1.7-42.6,18.9-73.3c20.6-30.8,1-30.8,20.3-66.8c19.2-36-8.8-24,3.5-58
			c12.3-34,18.5-65.7,2.2-65.1c-16.2,0.5-26.6,30.1-38.9,50s-16.9,40.3-17.8,55.1c-0.9,14.8-24.3,35.5-25.5,61.6
			c-1.2,26.1,14.4,38.1-4.3,71.7s-16.6,41.2-13.2,54.8C1068.4,934.2,1111,912.6,1119.7,890.5z"/>
	</g>
	<g>
		<path class="st29" d="M1089.2,915.5c0.2,0.1,0.6,0.1,0.9-0.2c0.7-0.5,1.3-1.6,1.4-2.5c0.6-13.3,6.1-24.4,11.3-35.1
			c3.9-7.9,7.9-16,9.6-24.5c1.4-7.2,0.5-13.7-0.4-20.6c-1.5-11.5-3.1-23.5,6.3-39.5c16.4-27.9,17.8-46.1,14.6-66.3
			c-1.5-9.9,4.5-24.4,10.9-39.8c6.2-15.1,12.7-30.7,11.5-41.7c-0.1-0.7-0.7-0.8-1.4-0.2c-0.7,0.7-1.2,1.8-1.2,2.5
			c1.1,10-4.8,24.3-11.1,39.3c-6.4,15.4-13,31.4-11.3,42.3c3.1,19.8,1.8,36.4-13.7,62.8c-10.6,18-8.8,31.3-7.3,43
			c0.9,6.6,1.7,12.8,0.4,19.4c-1.5,7.6-5.1,15-8.9,22.7c-5.3,10.8-11.4,23.1-12,37.5C1088.9,915.1,1089,915.3,1089.2,915.5z"/>
	</g>
	<g>
		<g>
			<path class="st30" d="M1149.2,954.1c32.2-20.2,26.7-36.5,42.1-37.2c15.4-0.7,18.9-23.8,37.8-30.3c18.9-6.5,16.4-29.7,35.3-42.8
				s37.4-31.5,39.9-50.1c2.5-18.7-14-6.8-24.1-5.2c-10.2,1.7-22,12.8-31,23.7c-9,10.9-17.7,0.2-33.7,20s-26.1,47.8-43.6,53
				s-22.5,13.8-31.6,28.9C1131.2,929.2,1137,961.8,1149.2,954.1z"/>
		</g>
		<g>
			<path class="st31" d="M1139.2,939.5c0.3,0.2,0.7-0.1,1.1-0.6c8.2-10.1,14-12.7,19.7-15.1c4.2-1.8,8.5-3.7,13.5-8.6
				c4.2-4.2,8.4-10.5,12.8-17.1c7.4-11.1,15.1-22.7,23.4-24.6c14.4-3.3,25.4-16.5,38.5-36.5c6.4-9.8,14.3-14.5,22.7-19.5
				c8.2-4.9,16.7-9.9,23.8-20.2c0.5-0.7,0.6-1.5,0.3-1.8c-0.3-0.3-0.9,0-1.4,0.7c-6.4,9.4-14.2,14-22.4,18.9
				c-8.4,5-17.1,10.1-24.2,21c-12.8,19.7-22.9,31.7-36.5,34.8c-9.3,2.2-17.8,15-25.3,26.2c-4.2,6.4-8.2,12.4-12.1,16.2
				c-4.4,4.4-8.4,6.1-12.5,7.9c-5.8,2.5-12.3,5.3-21.1,16.2c-0.5,0.6-0.8,1.5-0.6,1.9C1139.1,939.4,1139.2,939.5,1139.2,939.5z"/>
		</g>
	</g>
	<g>
		<path class="st25" d="M1155.1,914.9c44.5-67.3,19.9-66.3,49-93.7c29.1-27.4,15.9-45.9,46.6-82.5s5.9-44.7,31-84.9
			s44.9-82.5,33.6-96.9c-11.2-14.4-32.8,20.9-50.9,39.6c-18.1,18.7-31.3,45.5-39.2,67.1c-7.9,21.6-33.9,31.2-47.6,69.8
			c-13.7,38.5-9.1,71.4-38.3,104.9s-31.5,47-35.9,71C1099,933.2,1138.4,940.3,1155.1,914.9z"/>
	</g>
	<g>
		<path class="st32" d="M1122.7,924.2c0.1,0.1,0.2,0.1,0.4,0c0.6-0.1,1.4-1,1.8-2c7.1-19.9,16.3-31.7,25.2-43.1
			c6.8-8.7,13.2-16.8,18.4-28c4.5-9.6,7.1-20.2,9.8-31.4c4.7-19.1,9.5-38.9,24-54.7c24.7-26.9,34.5-53.1,42.3-86.6
			c3.9-16.7,15.2-33.2,27.2-50.7c11.6-17,23.6-34.5,28.2-52.2c0.2-1-0.1-1.5-0.8-1.3c-0.7,0.3-1.4,1.2-1.7,2.2
			c-4.3,16.5-15.9,33.4-27.1,49.8c-11.8,17.3-24.1,35.3-28.3,53.3c-7.8,33.2-16.8,57.4-40.5,83.2c-15.9,17.3-21.2,38.9-25.8,58
			c-2.7,10.9-5.2,21.2-9.4,30.1c-4.8,10.3-10.9,18.1-17.4,26.4c-9.3,11.9-18.9,24.2-26.4,45.4C1122.4,923.4,1122.4,924,1122.7,924.2
			z"/>
	</g>
</g>
<path class="st23" d="M806.1,948v-96.2l47.8-307.5l173.3,2c32,0.4,62.3,15.7,80.6,42c7.4,10.7,13.5,23.9,16.5,40
	c12,64.6,6.4,126.8,6.4,126.8L960.6,948.4"/>
<path class="st33" d="M1014.5,566.4c18.5,0.7,34.9,12,42.2,29c12.1,28,26.7,81.4,29.4,178.8c4.4,157.2-161.5,156.2-161.5,156.2H814
	l33.4-365.2L1014.5,566.4z"/>
<path class="st34" d="M950.7,943.2l3.4-238.2c0,0,18.6-16.2,25.8-41.7s-5.8-50.8-15.7-56.3c-9.8-5.6-103.4-32.3-103.4-32.3
	l-58.7,2.2l-79.7,18.7c0,0-39.9,25-79.2,59c-39.3,34-78.9,2.7-78.9,2.7l-56.9,53.1v6.1c0,0,69.9,106.5,105,116.7
	c0,0,15.8,4.8,31-5.2l71-90.9L714,948.4"/>
<path class="st35" d="M607.4,685.8c-1.2-0.8-1.9-1.4-1.9-1.4l-51.7,48.3v5.5c0,0,8.5,12.9,20.7,29.7c0,0,34.1-22.5,44.7-45
	C626.4,707.6,615.3,693.4,607.4,685.8z"/>
<line class="st36" x1="610.8" y1="691.9" x2="650.1" y2="739.5"/>
<path class="st34" d="M796.4,543l5.6,33.7c0,0,6.1,5.2,28.2,5.2s30.5-7.4,30.5-7.4l-0.2-49.8"/>
<polygon class="st35" points="714.3,737 714.3,699.5 736.8,737 "/>
<path class="st37" d="M965.9,685.9"/>
<g id="Calque_8">
	<path class="st38" d="M385.2,545.6h281.7c5.5,0,10.4,3.5,12.2,8.7l60.4,175.5c2.9,8.4-3.3,17.1-12.2,17.1H441
		c-5.6,0-10.6-3.6-12.3-9l-55.8-175.5C370.2,554.1,376.4,545.6,385.2,545.6z"/>
	<path class="st39" d="M372.1,545.6h281.7c5.5,0,10.4,3.5,12.2,8.7l60.4,175.5c2.9,8.4-3.3,17.1-12.2,17.1H428
		c-5.6,0-10.6-3.6-12.3-9l-55.8-175.5C357.1,554.1,363.4,545.6,372.1,545.6z"/>
	<path class="st22" d="M597.6,747H427.9c-5.6,0-10.6-3.6-12.3-9L378,620.2"/>
</g>
<g id="Calque_7">
	<polygon class="st40" points="854,541.7 799.3,560 797.5,549.2 	"/>
	<polygon class="st40" points="955.9,617.5 888,747 859.2,720.8 	"/>
	<path class="st34" d="M871,575.7c0,0,206.6-23.5,199.4,93.5L946.1,908.5c0,0-20.9,39.2-65.4,9.2c0,0-118.2-90.7-187.2-175.4
		l85.3-95.5L887.5,747l62.9-121.5L871,575.7z"/>
	<path class="st34" d="M696.5,737.8c0,0,65.8-55.9,100.5-67.9c0,0-80.4-74.6-95.5-81.8c-14.6-6.9-53.9,1.9-84,33.2
		c-2.5,2.6-4.4,5.8-5.2,9.3c0,0.2-0.1,0.3-0.1,0.5c-1.7,8.5,8,14.6,14.9,9.4c7.3-5.5,19.6-13.3,34.7-15.9c0,0-16.9,17.8-24.2,41.2
		c-1,3.2-1.2,6.7-0.7,10c0.9,5.9,3.3,14.7,9.7,16c0,0-2.8,22.3,11,24.8c0,0-1.4,10.3,8.4,14c3.8,1.4,7.9-1.2,8.4-5.2
		c1.1-8.2,4.3-21.8,14-27.8C688.3,697.5,676.7,725.8,696.5,737.8z"/>
	<path class="st22" d="M689.2,604.2c0,0-25,9.2-43.1,42.6"/>
	<path class="st22" d="M694.8,631c0,0-33.7,6.1-48.2,60.8"/>
	<path class="st22" d="M704.3,655.1c0,0-34.5,7.1-46.8,61.5"/>
	<path class="st34" d="M701.1,704.9l-16.3,27.9l33.7,36.4c0,0,75.9-86.2,81.3-107l-31.4-25.2l-3.9,2.2
		C764.5,639.3,741.3,652,701.1,704.9z"/>
	<path class="st22" d="M696.3,713.1c0,0,44.6-64.5,72.1-76l156.2,144.1"/>
	<path class="st22" d="M946.1,908.5c0,0-20.9,39.2-65.4,9.2c0,0-118.2-90.7-187.2-175.4"/>
	<line class="st22" x1="950.5" y1="626.6" x2="887" y2="747.7"/>
	<path class="st22" d="M802,576.7c0,0,26.4,27.1,85-0.2"/>
	<path class="st41" d="M892.4,579.1c0,0-46.5,76.9-17.3,80.8c3.6,0.5,7.3-0.4,10.5-2.2c8.6-5,31.9-19.4,64.8-46.9
		c0,0,35.2-27.7,80.5-10.5"/>
	<path class="st41" d="M843.4,599c0,0,20.9,83.2-4.9,63c-21.3-16.7-29.6-52.5-31.8-64.4c-0.8-4.2-3.1-8.1-6.6-10.6
		c-4.9-3.5-12.6-5-22.4,6.7c-17.4,20.7-33.2-3.4-33.2-3.4"/>
	<path class="st41" d="M1057,620.2c0,0-80.3,39.9-50.5,124.2"/>
	<path class="st41" d="M918.8,766.8c0,0-4.4-80.9,27.2-67c5,2.2,8.9,6.1,11.5,10.9c8.1,15.2,27.6,59.4,23.1,124.9"/>
	<path class="st41" d="M761.4,809c0,0-1-130.6,25.7-78.8c15.9,30.9,29.6,56.6,36.6,69.6c4.9,9.1,11.8,17,20.5,22.7
		c15.7,10.3,36.8,13,31.1-53.3l-4.4-32.3"/>
	<path class="st41" d="M756.7,655.1c0,0,46.3,78.2,53.8,28.5"/>
	<path class="st41" d="M677,766.8c0,0-34.6-45.3-51.4,28.6"/>
</g>
<g id="Calque_9">
	<path class="st23" d="M911,948.4c9.3-41,27.6-93.6,63.5-136.7c49.7-59.7,121.5-67.4,152.8-67.8c8.5-0.1,15.4,6.8,15.4,15.3V948"/>
	<path class="st22" d="M1031,766.8c0,0,46.6-23.9,90.7-22.3"/>
</g>
<g id="Calque_11">
	<path class="st34" d="M754.3,376.4c0,0-8.5,63.4-10.5,114c-1,25.1,4,48.9,26.5,56.5c18.4,6.3,58.7,3,97.4-9.6l15.5-81.6
		c4.1-21.7,4.7-44,1.7-65.9l0,0c-1.3-9.8-7.8-18.2-17-21.8C844.9,358.8,799.1,347.4,754.3,376.4z"/>
	<path class="st27" d="M890.7,451.7c0,0-42.9-3.9-38.3-89.4c0,0-59.6,35.8-102.2,18.3c0,0-18.6-35.1,31.1-53.7c0,0,25-7.6,71.5,6.6
		c0,0,29.7,5,51.9,2.9c0,0,45.1,1,50.7,55.6c0,0-7.7,70.9,8.5,82.8c0,0,33.7,27.8,5.1,74.2c0,0-9.2,16.2-8.9,27.2l-18.8,3
		c0,0,13.4-31.5,4.7-51.7c0,0-0.8,33.1-8.8,51.7l-10.7,1.3c0,0,6.2-29.2,1.7-40.1c0,0-3.3,32.8-7.7,38.8l-78.6,5
		c0,0,12.8-21.2,10.8-48.7c0,0-9.7-37.8,21.9-62L890.7,451.7z"/>
	<circle class="st34" cx="880.9" cy="472.2" r="24.6"/>
	<path class="st22" d="M870.8,468.9c0,0,11.6-8.2,21.6-4.9"/>
	<path class="st22" d="M781.6,424.2c0,0-16.6,43.3-0.4,49.6"/>
	<path class="st22" d="M817.7,475.9c0,0-4.2,14.2-17.4,12.4"/>
	<path class="st42" d="M802.9,413.1c0,0,10.6-2.2,20.8,2.8"/>
	<path class="st42" d="M769,415c0,0-10.8-2.4-15.3-0.1"/>
	<circle cx="809.7" cy="446.3" r="4.5"/>
	<circle cx="756.7" cy="439.2" r="4.5"/>
	<path class="st34" d="M884.8,389.8"/>
	<path class="st43" d="M703.3,434c-2,19.1,11.9,36.2,31,38.2c16.3,1.7,31.2-8.2,36.4-23.1l12.1,1.3c2,15.6,14.6,28.4,30.9,30.1
		c19.1,2,36.2-11.9,38.2-31c2-19.1-11.9-36.2-31-38.2c-19.1-2-36.2,11.9-38.2,31c-0.1,0.9-0.1,1.7-0.2,2.6l-10.5-1.1
		c0.2-0.9,0.3-1.7,0.4-2.6c2-19.1-11.9-36.2-31-38.2C722.4,401,705.3,414.9,703.3,434z M708.7,434.6c1.7-16.1,16.1-27.9,32.2-26.2
		c16.1,1.7,27.8,16.1,26.2,32.2c-1.7,16.1-16.1,27.9-32.2,26.2C718.8,465.1,707,450.7,708.7,434.6z M788.2,442.8
		c1.7-16.1,16.1-27.9,32.2-26.2c16.1,1.7,27.8,16.1,26.2,32.2c-1.7,16.1-16.1,27.9-32.2,26.2C798.2,473.4,786.5,458.9,788.2,442.8z"
		/>
	<path class="st22" d="M741.8,477.7c0,4.9,0,9.8,0.1,14.5c0.4,25.2,6.7,48.6,29.5,55c12.8,3.6,35.7,2.2,60.9-3.7"/>
	<path class="st26" d="M298.9,737.6h277.2c6.4,0,12.1,4.2,14,10.3l58.6,186.4c2.6,8.2-3.6,16.6-12.2,16.6H363.5
		c-9.2,0-17.3-6-19.9-14.8l-54.8-185C286.8,744.4,291.9,737.6,298.9,737.6z"/>
	<path class="st12" d="M455.3,825.2c-0.9-2.8-1.1-5.6-0.8-8.3c-1.8,0.1-3.7,0.4-5.5,1c-12.1,4-18.7,17.1-14.7,29.2
		c4,12.1,17.1,18.7,29.2,14.7c10.5-3.4,16.8-13.6,15.8-24.1C469.2,840.6,458.6,835.2,455.3,825.2z"/>
	<line class="st44" x1="288.4" y1="712.9" x2="280.4" y2="670.5"/>
	<line class="st44" x1="276.5" y1="720" x2="251.5" y2="689"/>
	<line class="st44" x1="267.5" y1="731" x2="232.5" y2="712"/>
	<line class="st45" x1="1143.6" y1="950.7" x2="301.5" y2="950.7"/>
	<path class="st46" d="M614.3,628.8c0,0,4.7-7.8,10.4-5.9c1.9,0.6,3.3,2.3,3.9,4.3c0.9,3,1.2,7.9-4.1,11.9"/>
	<path class="st46" d="M638.3,677c2-0.4,4,0.4,5.5,1.8c2.2,2.2,4.9,6.3,2.3,12.3"/>
	<path class="st46" d="M647.3,701.7c1.9-0.7,4-0.3,5.7,0.8c2.5,1.7,6,5.3,4.5,11.7"/>
	<path class="st46" d="M659.6,724.6c0.3-2.4,1.3-5,4-6.2c1.9-0.8,4-0.5,5.7,0.6c1.9,1.2,4.4,3.5,5,7.2"/>
</g>
</svg>
