<?xml version="1.0" encoding="utf-8"?>
<!-- Generator: Adobe Illustrator 25.4.1, SVG Export Plug-In . SVG Version: 6.00 Build 0)  -->
<svg version="1.1" id="Calque_1" xmlns="http://www.w3.org/2000/svg" xmlns:xlink="http://www.w3.org/1999/xlink" x="0px" y="0px"
	 viewBox="0 0 658 1558" style="enable-background:new 0 0 658 1558;" xml:space="preserve">
<style type="text/css">
	.st0{fill-rule:evenodd;clip-rule:evenodd;fill:#0196FF;}
	.st1{fill-rule:evenodd;clip-rule:evenodd;fill:#FFFFFF;}
	.st2{fill:#EBBB5B;}
	.st3{fill-rule:evenodd;clip-rule:evenodd;fill:#01C7FE;stroke:#01C7FE;stroke-miterlimit:10;}
	.st4{fill-rule:evenodd;clip-rule:evenodd;fill:#03E9FF;}
	.st5{fill-rule:evenodd;clip-rule:evenodd;fill:#EBBB5B;}
	.st6{fill:#03E9FF;}
	.st7{opacity:0.16;fill-rule:evenodd;clip-rule:evenodd;fill:#FFFFFF;}
	.st8{fill-rule:evenodd;clip-rule:evenodd;fill:none;stroke:#EBBB5B;stroke-width:11;stroke-miterlimit:10;}
	.st9{fill-rule:evenodd;clip-rule:evenodd;fill:#252D81;}
	.st10{fill-rule:evenodd;clip-rule:evenodd;fill:#15285A;}
	.st11{fill-rule:evenodd;clip-rule:evenodd;fill:#1E3568;}
	.st12{fill:#FFFFFF;}
	.st13{fill:#15285A;}
	.st14{fill-rule:evenodd;clip-rule:evenodd;fill:none;stroke:#EBBB5B;stroke-width:15;stroke-miterlimit:10;}
	.st15{fill-rule:evenodd;clip-rule:evenodd;fill:none;stroke:#01C7FE;stroke-width:15;stroke-miterlimit:10;}
	.st16{fill:#0196FF;}
</style>
<path class="st0" d="M2043.94,0.35L2043.94,0.35c35.35,0,64.27,28.92,64.27,64.26v0c0,35.35-28.92,64.26-64.26,64.26h0
	c-35.34,0-64.26-28.92-64.26-64.26v0C1979.67,29.27,2008.59,0.35,2043.94,0.35z"/>
<path class="st1" d="M2043.94,31.02L2043.94,31.02c18.48,0,33.59,15.12,33.59,33.59v0c0,18.48-15.12,33.59-33.59,33.59l0,0
	c-18.48,0-33.59-15.12-33.59-33.59v0C2010.34,46.14,2025.46,31.02,2043.94,31.02z"/>
<rect x="1979.2" y="129.35" class="st1" width="128.53" height="128.53"/>
<path class="st2" d="M2069.6,257.76h-37.93c0-41.9,33.97-75.87,75.87-75.87v37.93C2086.59,219.83,2069.6,236.81,2069.6,257.76z"/>
<path class="st3" d="M594.84,1524.82L594.84,1524.82c24.03,0,43.7-19.66,43.7-43.7v0c0-24.03-19.66-43.7-43.7-43.7h0
	c-24.03,0-43.69,19.66-43.69,43.7v0C551.14,1505.16,570.81,1524.82,594.84,1524.82z"/>
<path class="st0" d="M657.86,903.57H544.04c0,62.86,50.95,113.81,113.81,113.81V903.57z"/>
<path class="st4" d="M657.85,903.58h-43.16c0,23.84,19.32,43.16,43.16,43.16V903.58z"/>
<path class="st5" d="M594.2,1154.2L594.2,1154.2c35.35,0,64.27-28.92,64.27-64.26v0c0-35.35-28.92-64.26-64.26-64.26h0
	c-35.34,0-64.26,28.92-64.26,64.26v0C529.94,1125.28,558.86,1154.2,594.2,1154.2z"/>
<path class="st1" d="M594.2,1123.53L594.2,1123.53c18.48,0,33.59-15.12,33.59-33.59l0,0c0-18.48-15.12-33.59-33.59-33.59h0
	c-18.48,0-33.59,15.12-33.59,33.59l0,0C560.61,1108.41,575.73,1123.53,594.2,1123.53z"/>
<rect x="529.46" y="1162.4" class="st3" width="128.53" height="128.53"/>
<path class="st6" d="M593.69,1227.94c-35.68,0-64.61-28.93-64.61-64.61H658.3C658.3,1199.01,629.37,1227.94,593.69,1227.94z"/>
<path class="st7" d="M638.46,1226.63L638.46,1226.63c0,24.03-19.66,43.7-43.7,43.7h0c-24.03,0-43.7-19.66-43.7-43.7v0
	c0-24.03,19.66-43.69,43.7-43.69h0C618.79,1182.94,638.46,1202.6,638.46,1226.63z"/>
<rect x="529.12" y="1291.22" class="st1" width="129.06" height="129.06"/>
<path class="st8" d="M624.42,1375.49c-4.07-4.07-10.67-4.07-14.74,0c-4.07,4.07-4.07,10.67,0,14.74c4.07,4.07,10.67,4.07,14.74,0
	C628.49,1386.16,628.49,1379.56,624.42,1375.49z"/>
<path class="st8" d="M597.31,1348.38c-4.07-4.07-10.67-4.07-14.74,0c-4.07,4.07-4.07,10.67,0,14.74c4.07,4.07,10.67,4.07,14.74,0
	C601.38,1359.04,601.38,1352.45,597.31,1348.38z"/>
<path class="st8" d="M570.2,1321.27c-4.07-4.07-10.67-4.07-14.74,0c-4.07,4.07-4.07,10.67,0,14.74c4.07,4.07,10.67,4.07,14.74,0
	C574.27,1331.93,574.27,1325.34,570.2,1321.27z"/>
<path class="st3" d="M529.27,903.06V789.25c62.86,0,113.81,50.95,113.81,113.81H529.27z"/>
<path class="st9" d="M529.27,903.06v-43.17c23.84,0,43.17,19.33,43.17,43.17H529.27z"/>
<rect x="529.27" y="646" class="st0" width="128.53" height="128.53"/>
<rect x="529.27" y="388.94" class="st0" width="128.53" height="128.53"/>
<path class="st3" d="M529.27,388.94v113.81c62.86,0,113.81-50.95,113.81-113.81H529.27z"/>
<rect x="529.27" y="517.47" class="st1" width="128.53" height="128.53"/>
<rect x="529.27" y="131.88" class="st1" width="128.53" height="128.53"/>
<rect x="400.74" y="517.47" class="st3" width="128.53" height="128.53"/>
<rect x="400.74" y="646" class="st1" width="128.53" height="128.53"/>
<path class="st5" d="M529.27,710.26L529.27,710.26c0-35.35-28.92-64.27-64.26-64.27h0c-35.35,0-64.26,28.92-64.26,64.26v0
	c0,35.35,28.92,64.26,64.26,64.26h0C500.35,774.53,529.27,745.61,529.27,710.26z"/>
<path class="st1" d="M498.6,710.26L498.6,710.26c0-18.48-15.12-33.59-33.59-33.59l0,0c-18.48,0-33.59,15.12-33.59,33.59v0
	c0,18.48,15.12,33.59,33.59,33.59l0,0C483.48,743.86,498.6,728.74,498.6,710.26z"/>
<rect x="400.74" y="774.53" class="st10" width="128.53" height="128.53"/>
<path class="st0" d="M529.27,903.06V789.25c-62.86,0-113.81,50.95-113.81,113.81H529.27z"/>
<path class="st4" d="M529.27,903.06v-43.17c-23.84,0-43.17,19.33-43.17,43.17H529.27z"/>
<rect x="400.74" y="388.94" class="st1" width="128.53" height="128.53"/>
<path class="st8" d="M484.66,422.55c-4.05,4.05-4.05,10.63,0,14.68c4.05,4.05,10.63,4.05,14.68,0c4.05-4.05,4.05-10.63,0-14.68
	C495.29,418.5,488.72,418.5,484.66,422.55z"/>
<path class="st8" d="M457.66,449.55c-4.05,4.05-4.05,10.63,0,14.68c4.05,4.05,10.63,4.05,14.68,0c4.05-4.05,4.05-10.63,0-14.68
	C468.29,445.5,461.72,445.5,457.66,449.55z"/>
<path class="st8" d="M430.67,476.55c-4.05,4.05-4.05,10.63,0,14.68c4.05,4.05,10.63,4.05,14.68,0c4.05-4.05,4.05-10.63,0-14.68
	C441.29,472.5,434.72,472.5,430.67,476.55z"/>
<rect x="272.21" y="774.53" class="st11" width="128.53" height="128.53"/>
<path class="st1" d="M272.21,904.06V775.53c70.98,0,128.53,57.54,128.53,128.53H272.21z"/>
<rect x="272.21" y="517.47" class="st10" width="128.53" height="128.53"/>
<rect x="272.21" y="388.94" class="st1" width="128.53" height="128.53"/>
<path class="st0" d="M400.74,453.2L400.74,453.2c0-35.35-28.92-64.27-64.26-64.27h0c-35.35,0-64.26,28.92-64.26,64.27v0
	c0,35.34,28.92,64.26,64.26,64.26h0C371.82,517.47,400.74,488.55,400.74,453.2z"/>
<rect x="272.21" y="646" class="st1" width="128.53" height="128.53"/>
<path class="st0" d="M272.21,646v113.81c62.86,0,113.81-50.95,113.81-113.81H272.21z"/>
<path class="st1" d="M272.21,646v43.17c23.84,0,43.17-19.33,43.17-43.17H272.21z"/>
<path class="st5" d="M272.21,646V532.19c-62.86,0-113.81,50.95-113.81,113.81H272.21z"/>
<path class="st11" d="M272.21,646v-43.17c-23.84,0-43.17,19.33-43.17,43.17H272.21z"/>
<rect x="143.68" y="646" class="st4" width="128.53" height="128.53"/>
<path class="st3" d="M272.21,646v113.81c-62.86,0-113.81-50.95-113.81-113.81H272.21z"/>
<path class="st1" d="M272.21,646v43.17c-23.84,0-43.17-19.33-43.17-43.17H272.21z"/>
<rect x="143.68" y="775" class="st1" width="128.53" height="129.06"/>
<g>
	<path class="st12" d="M208.12,433.93c10.38,0,18.79,8.41,18.79,18.79c0,10.38-8.41,18.79-18.79,18.79h0
		c-10.38,0-18.79-8.41-18.79-18.79C189.33,442.35,197.74,433.93,208.12,433.93L208.12,433.93 M208.12,409.93
		c-23.6,0-42.79,19.2-42.79,42.79c0,23.6,19.2,42.79,42.79,42.79s42.79-19.2,42.79-42.79C250.92,429.13,231.72,409.93,208.12,409.93
		L208.12,409.93z"/>
</g>
<path class="st2" d="M657.68,170.01v37.93c-41.9,0-75.87-33.97-75.87-75.87h37.93C619.75,153.03,636.73,170.01,657.68,170.01z"/>
<path class="st13" d="M593.24,646.08h63.56c0-70.2-56.91-127.11-127.11-127.11v63.56C564.78,582.52,593.23,610.98,593.24,646.08z"/>
<path class="st14" d="M166.9,855.11c-6.87,6.87-6.87,18.01,0,24.88c6.87,6.87,18.01,6.87,24.88,0c6.87-6.87,6.87-18.01,0-24.88
	C184.91,848.24,173.77,848.24,166.9,855.11z"/>
<path class="st12" d="M573.62,645.81c0,24.08-19.59,43.67-43.67,43.67v-5.86c20.85,0,37.81-16.96,37.81-37.81"/>
<path class="st12" d="M614.65,645.81c0,46.71-38,84.7-84.7,84.7v-5.86c43.47,0,78.84-35.37,78.84-78.84"/>
<path class="st12" d="M655.68,645.81c0,69.33-56.4,125.73-125.73,125.73v-5.86c66.1,0,119.87-53.77,119.87-119.87"/>
<path class="st6" d="M464.98,580.46c-35.68,0-64.61,28.93-64.61,64.61h129.22C529.59,609.39,500.66,580.46,464.98,580.46z"/>
<path class="st7" d="M509.74,581.77L509.74,581.77c0-24.03-19.66-43.7-43.7-43.7h0c-24.03,0-43.7,19.66-43.7,43.7v0
	c0,24.03,19.66,43.69,43.7,43.69h0C490.08,625.47,509.74,605.8,509.74,581.77z"/>
<path class="st3" d="M500.74,324.77L500.74,324.77c0-24.03-19.66-43.7-43.7-43.7h0c-24.03,0-43.7,19.66-43.7,43.7v0
	c0,24.03,19.66,43.69,43.7,43.69h0C481.08,368.47,500.74,348.8,500.74,324.77z"/>
<path class="st15" d="M295.9,542.11c-6.87,6.87-6.87,18.01,0,24.88c6.87,6.87,18.01,6.87,24.88,0c6.87-6.87,6.87-18.01,0-24.88
	C313.91,535.24,302.77,535.24,295.9,542.11z"/>
<path class="st0" d="M594.84,106.82L594.84,106.82c24.03,0,43.7-19.66,43.7-43.7v0c0-24.03-19.66-43.7-43.7-43.7h0
	c-24.03,0-43.69,19.66-43.69,43.7v0C551.14,87.16,570.81,106.82,594.84,106.82z"/>
<g>
	<path class="st16" d="M63.94,809c8.18,0,15.92,3.23,21.79,9.1c5.87,5.87,9.1,13.61,9.1,21.79c0,8.18-3.23,15.92-9.1,21.79
		c-5.87,5.87-13.61,9.1-21.79,9.1c-8.18,0-15.92-3.23-21.79-9.1c-5.87-5.87-9.1-13.61-9.1-21.79c0-8.19,3.23-15.92,9.1-21.79
		C48.01,812.23,55.75,809,63.94,809L63.94,809 M63.94,779L63.94,779c-33.49,0-60.9,27.4-60.9,60.89v0
		c0,33.49,27.4,60.89,60.89,60.89h0c33.49,0,60.89-27.4,60.89-60.89v0C124.83,806.4,97.43,779,63.94,779L63.94,779z"/>
</g>
<g>
	<path class="st16" d="M593.66,292.28c8.18,0,15.92,3.23,21.79,9.1c5.87,5.87,9.1,13.61,9.1,21.79c0,8.18-3.23,15.92-9.1,21.79
		c-5.87,5.87-13.61,9.1-21.79,9.1c-8.18,0-15.92-3.23-21.79-9.1c-5.87-5.87-9.1-13.61-9.1-21.79c0-8.19,3.23-15.92,9.1-21.79
		S585.47,292.28,593.66,292.28L593.66,292.28 M593.66,262.28L593.66,262.28c-33.49,0-60.9,27.4-60.9,60.89v0
		c0,33.49,27.4,60.89,60.89,60.89h0c33.49,0,60.89-27.4,60.89-60.89v0C654.55,289.68,627.15,262.28,593.66,262.28L593.66,262.28z"/>
</g>
</svg>
