<?xml version="1.0" encoding="utf-8"?>
<!-- Generator: Adobe Illustrator 25.4.1, SVG Export Plug-In . SVG Version: 6.00 Build 0)  -->
<svg version="1.1" id="Calque_1" xmlns="http://www.w3.org/2000/svg" xmlns:xlink="http://www.w3.org/1999/xlink" x="0px" y="0px"
	 viewBox="0 0 129 899" style="enable-background:new 0 0 129 899;" xml:space="preserve">
<style type="text/css">
	.st0{fill-rule:evenodd;clip-rule:evenodd;fill:#FFFFFF;}
	.st1{fill:#EBBB5B;}
	.st2{fill-rule:evenodd;clip-rule:evenodd;fill:#01C7FE;stroke:#01C7FE;stroke-miterlimit:10;}
	.st3{fill-rule:evenodd;clip-rule:evenodd;fill:#0196FF;}
	.st4{fill-rule:evenodd;clip-rule:evenodd;fill:#03E9FF;}
	.st5{fill-rule:evenodd;clip-rule:evenodd;fill:#EBBB5B;}
	.st6{fill:#03E9FF;}
	.st7{opacity:0.16;fill-rule:evenodd;clip-rule:evenodd;fill:#FFFFFF;}
	.st8{fill-rule:evenodd;clip-rule:evenodd;fill:none;stroke:#EBBB5B;stroke-width:11;stroke-miterlimit:10;}
	.st9{fill:#0196FF;}
</style>
<rect x="0.03" y="128.77" class="st0" width="128.53" height="128.53"/>
<path class="st1" d="M90.43,257.19H52.5c0-41.9,33.97-75.87,75.87-75.87v37.93C107.41,219.25,90.43,236.24,90.43,257.19z"/>
<path class="st2" d="M65.67,878.25L65.67,878.25c24.03,0,43.7-19.66,43.7-43.7v0c0-24.03-19.66-43.7-43.7-43.7h0
	c-24.03,0-43.69,19.66-43.69,43.7v0C21.97,858.58,41.64,878.25,65.67,878.25z"/>
<path class="st3" d="M128.68,256.99H14.87c0,62.86,50.95,113.81,113.81,113.81V256.99z"/>
<path class="st4" d="M128.68,257H85.52c0,23.84,19.32,43.16,43.16,43.16V257z"/>
<path class="st5" d="M65.03,507.62L65.03,507.62c35.35,0,64.27-28.92,64.27-64.26v0c0-35.35-28.92-64.26-64.26-64.26h0
	c-35.34,0-64.26,28.92-64.26,64.26v0C0.76,478.7,29.68,507.62,65.03,507.62z"/>
<path class="st0" d="M65.03,476.95L65.03,476.95c18.48,0,33.59-15.12,33.59-33.59l0,0c0-18.48-15.12-33.59-33.59-33.59h0
	c-18.48,0-33.59,15.12-33.59,33.59l0,0C31.44,461.83,46.55,476.95,65.03,476.95z"/>
<rect x="0.29" y="515.83" class="st2" width="128.53" height="128.53"/>
<path class="st6" d="M64.52,581.36c-35.68,0-64.61-28.93-64.61-64.61h129.22C129.13,552.43,100.2,581.36,64.52,581.36z"/>
<path class="st7" d="M109.29,580.05L109.29,580.05c0,24.03-19.66,43.7-43.7,43.7h0c-24.03,0-43.7-19.66-43.7-43.7v0
	c0-24.03,19.66-43.69,43.7-43.69h0C89.62,536.36,109.29,556.02,109.29,580.05z"/>
<rect x="-0.06" y="644.64" class="st0" width="129.06" height="129.06"/>
<path class="st8" d="M95.25,728.91c-4.07-4.07-10.67-4.07-14.74,0c-4.07,4.07-4.07,10.67,0,14.74c4.07,4.07,10.67,4.07,14.74,0
	C99.32,739.58,99.32,732.98,95.25,728.91z"/>
<path class="st8" d="M68.14,701.8c-4.07-4.07-10.67-4.07-14.74,0c-4.07,4.07-4.07,10.67,0,14.74c4.07,4.07,10.67,4.07,14.74,0
	C72.21,712.47,72.21,705.87,68.14,701.8z"/>
<path class="st8" d="M41.03,674.69c-4.07-4.07-10.67-4.07-14.74,0c-4.07,4.07-4.07,10.67,0,14.74c4.07,4.07,10.67,4.07,14.74,0
	C45.1,685.36,45.1,678.76,41.03,674.69z"/>
<g>
	<path class="st9" d="M64.96,34.32c8.18,0,15.92,3.23,21.79,9.1c5.87,5.87,9.1,13.61,9.1,21.79c0,8.18-3.23,15.92-9.1,21.79
		c-5.87,5.87-13.61,9.1-21.79,9.1c-8.18,0-15.92-3.23-21.79-9.1c-5.87-5.87-9.1-13.61-9.1-21.79c0-8.19,3.23-15.92,9.1-21.79
		S56.78,34.32,64.96,34.32L64.96,34.32 M64.96,4.32L64.96,4.32c-33.49,0-60.9,27.4-60.9,60.89v0c0,33.49,27.4,60.89,60.89,60.89h0
		c33.49,0,60.89-27.4,60.89-60.89v0C125.86,31.72,98.46,4.32,64.96,4.32L64.96,4.32z"/>
</g>
</svg>
